<?xml version="1.0" encoding="utf-8"?>
<svg version="1.1" id="svg2" xmlns="http://www.w3.org/2000/svg" xmlns:xlink="http://www.w3.org/1999/xlink" x="0px" y="0px"
	 viewBox="0 0 900 500" style="enable-background:new 0 0 900 500;" xml:space="preserve">
<style type="text/css">
	.st0{fill:#FFFFFF;}
	.st1{fill:#1C225F;}
	.st2{fill:#24429B;}
	.st3{fill:#FFCC37;}
	.st4{fill:#006633;}
</style>
<rect id="rect1155" y="0" class="st0" width="900" height="500"/>
<path id="path2033" class="st1" d="M898.4,129.2c-317.3-23-289.5,93.2-289.5,93.2c4.1,51.3-13.3,83.8-13.3,83.8
	C501,452.9,0,372.3,0,372.3V500h900V129.4L898.4,129.2z"/>
<path id="path2035" class="st2" d="M1.2,289.3c113.4,8,229.3,10.8,340.6-16.6c34.1-10,71-22.3,94.5-50.8
	c17-40.3-16.7-82.4,1.1-122.9c12.3-32.3,50.7-34.4,78.4-44.9c124.9-33.9,255.9-39.4,384.3-30V0H0v289.3L1.2,289.3L1.2,289.3z"/>
<path id="path2038" class="st3" d="M898.5,381.9c-41.4-17-82-78.5-82-78.5C746.8,190,900,193.7,900,193.7v188.4L898.5,381.9z"/>
<path id="path2040" class="st4" d="M0,181.9c0,0,159.8-33.8,70.5-181.5H0C0,0.4,0,181.9,0,181.9z"/>
</svg>
